<?xml version="1.0" standalone="no"?>
<!DOCTYPE svg PUBLIC "-//W3C//DTD SVG 20010904//EN"
 "http://www.w3.org/TR/2001/REC-SVG-20010904/DTD/svg10.dtd">
<svg version="1.0" xmlns="http://www.w3.org/2000/svg"
 width="1024.000000pt" height="1024.000000pt" viewBox="0 0 1024.000000 1024.000000"
 preserveAspectRatio="xMidYMid meet">

<g transform="translate(0.000000,1024.000000) scale(0.100000,-0.100000)"
fill="#000000" stroke="none">
<path d="M0 5120 l0 -5120 5120 0 5120 0 0 5120 0 5120 -5120 0 -5120 0 0
-5120z m5586 3991 c1135 -152 2073 -805 2574 -1791 178 -351 279 -680 337
-1100 24 -175 24 -650 0 -834 -106 -793 -442 -1477 -990 -2015 -75 -73 -75
-73 -143 -81 -67 -7 -236 5 -261 19 -8 4 14 29 65 73 97 84 300 289 385 389
417 496 671 1115 728 1778 14 173 7 497 -16 661 -129 930 -672 1754 -1471
2230 -155 92 -231 132 -379 195 -805 344 -1728 354 -2530 28 -250 -102 -556
-281 -765 -450 -111 -89 -312 -284 -411 -400 -429 -497 -671 -1059 -740 -1711
-16 -153 -6 -591 16 -732 56 -359 143 -643 289 -945 90 -188 224 -402 344
-553 l18 -23 100 20 c113 23 271 30 419 18 l100 -8 0 290 c0 160 -3 291 -6
291 -3 0 -73 -12 -155 -26 -109 -19 -199 -28 -336 -31 -194 -6 -238 -2 -238
21 0 8 28 49 63 93 134 166 501 662 495 669 -2 1 -59 -13 -127 -32 -144 -39
-298 -61 -314 -45 -7 7 27 49 114 138 68 71 158 171 199 222 74 93 241 324
236 328 -1 1 -42 -11 -92 -27 -144 -46 -244 -52 -244 -14 0 9 27 46 60 82 170
184 253 309 375 557 51 105 99 207 106 228 7 20 17 36 22 34 5 -1 40 -70 77
-152 143 -314 243 -472 412 -652 43 -45 78 -86 78 -91 0 -45 -133 -41 -250 7
-41 17 -76 31 -78 31 -7 0 163 -245 227 -327 39 -50 123 -149 187 -218 74 -80
114 -131 110 -140 -14 -36 -224 5 -409 80 -31 13 257 -393 461 -649 71 -89 91
-121 82 -130 -8 -7 -72 -11 -208 -10 -165 1 -221 6 -342 28 -80 14 -156 29
-169 32 l-23 7 6 -299 c4 -164 9 -315 12 -334 5 -35 5 -35 122 -73 172 -57
402 -163 532 -247 151 -97 365 -207 515 -265 143 -55 255 -105 255 -115 0 -10
-244 28 -360 56 -58 15 -292 88 -520 164 -426 142 -645 203 -855 239 -143 24
-302 41 -393 41 l-66 0 64 -66 c166 -169 456 -385 696 -519 359 -200 838 -345
1269 -385 141 -13 429 -13 570 0 241 22 490 75 731 155 121 40 146 46 195 40
54 -5 306 -68 316 -79 13 -13 -270 -133 -463 -196 -539 -175 -1137 -216 -1694
-114 -597 109 -1133 359 -1585 738 -132 110 -361 345 -465 476 -394 496 -640
1104 -712 1760 -20 187 -15 585 11 772 81 604 278 1094 626 1564 586 789 1442
1259 2449 1344 170 14 591 4 762 -19z m-569 -693 c27 -30 672 -880 696 -920
10 -14 26 -9 149 53 76 38 145 69 153 69 13 0 258 -228 705 -655 237 -228 509
-471 667 -598 140 -112 393 -294 470 -338 58 -33 75 -56 52 -70 -8 -5 -191 -9
-408 -9 -371 0 -393 1 -386 18 19 46 26 105 23 188 -3 74 -9 101 -32 147 -43
88 -115 161 -204 204 -74 37 -79 38 -187 38 -105 0 -114 -2 -177 -33 -131 -64
-214 -188 -226 -334 -4 -64 -6 -68 -29 -68 -37 0 -171 -29 -238 -52 -33 -12
-99 -40 -147 -64 l-88 -44 -904 0 -904 0 -34 38 c-109 121 -250 332 -363 541
-122 229 -159 281 -200 281 -31 0 -56 -31 -120 -150 -144 -266 -292 -496 -414
-644 l-55 -66 -293 0 -293 0 0 64 0 63 338 329 c185 181 378 367 429 414 71
66 103 105 143 175 104 180 275 418 325 451 43 28 96 12 312 -95 l203 -100 76
87 c111 126 302 361 609 747 148 187 276 345 285 352 23 19 33 16 67 -19z
m1830 -1993 c115 -51 193 -162 196 -279 l2 -61 -55 1 c-30 0 -104 4 -165 8
-67 4 -115 3 -124 -2 -21 -15 -5 -60 35 -100 l35 -35 98 6 c102 7 121 2 121
-35 0 -41 -85 -149 -146 -184 l-45 -26 38 -20 c95 -50 148 -140 203 -343 59
-219 49 -204 231 -338 94 -69 167 -130 177 -148 10 -17 38 -41 64 -55 102 -52
158 -126 158 -209 0 -74 -50 -145 -102 -145 -24 0 -31 6 -44 38 -23 60 -38 85
-49 81 -5 -2 -8 -12 -7 -22 3 -17 1 -17 -34 -2 -45 19 -74 43 -74 62 0 8 -11
13 -28 13 -16 0 -91 35 -182 86 -283 158 -318 187 -395 327 -20 37 -40 67 -43
67 -4 0 -24 -35 -46 -78 -21 -42 -72 -127 -113 -189 l-74 -112 68 -62 c129
-117 295 -294 324 -344 23 -41 29 -62 29 -114 0 -77 -12 -125 -102 -406 -39
-121 -73 -229 -76 -240 -2 -11 -16 -35 -29 -53 -29 -39 -21 -56 31 -66 45 -9
86 -42 86 -69 0 -12 -9 -49 -19 -82 -11 -33 -16 -63 -13 -67 4 -3 84 -21 177
-39 183 -35 268 -39 467 -25 126 10 153 3 178 -44 28 -52 -80 -180 -184 -219
-149 -55 -267 -52 -537 15 -233 58 -1453 331 -1936 434 -300 63 -386 96 -482
184 -32 29 -81 116 -81 144 0 7 11 24 25 37 42 43 128 32 295 -38 47 -19 130
-47 185 -62 55 -15 135 -38 178 -50 l79 -23 24 54 c13 30 24 58 24 62 0 4 21
41 46 82 26 41 48 87 50 103 5 40 20 64 184 313 174 262 163 224 130 479 -37
284 -33 296 176 565 80 103 144 197 144 211 0 4 -36 -8 -80 -27 -44 -18 -121
-47 -170 -64 -72 -24 -130 -55 -278 -150 -102 -66 -196 -123 -207 -126 -15 -4
-32 -26 -51 -66 -31 -64 -78 -114 -120 -124 -32 -8 -42 2 -25 27 7 12 9 24 6
27 -7 7 -35 -23 -86 -89 -24 -31 -29 -33 -55 -24 -17 6 -38 27 -52 50 -31 54
-26 143 11 201 28 45 116 128 159 150 15 8 28 21 28 28 0 30 255 250 380 328
202 125 776 413 847 423 21 4 74 -1 118 -9 120 -24 118 -25 94 29 -90 204 19
420 231 455 61 10 115 2 177 -25z"/>
<path d="M4922 8084 c-7 -14 -41 -125 -76 -247 -35 -122 -96 -325 -135 -451
-39 -126 -71 -233 -71 -238 0 -4 26 16 58 46 31 29 75 69 98 89 l40 36 -68
-347 c-37 -191 -68 -350 -68 -355 0 -4 44 27 98 68 292 228 441 335 468 341
36 7 107 -26 368 -175 94 -53 231 -130 304 -171 l134 -73 165 164 165 164
-134 128 c-73 71 -170 162 -215 203 l-81 75 -65 -32 c-62 -31 -65 -34 -55 -58
5 -14 46 -129 89 -256 l80 -230 -414 414 -415 414 -82 -81 c-46 -45 -86 -79
-90 -77 -18 11 -55 284 -70 509 -5 88 -11 161 -13 163 -2 2 -9 -8 -15 -23z"/>
<path d="M6120 4360 c0 -47 -45 -129 -162 -296 -69 -99 -155 -225 -191 -281
-37 -56 -76 -104 -87 -108 -31 -10 -24 -32 16 -51 19 -9 42 -28 51 -41 14 -22
14 -28 -6 -80 -12 -31 -20 -57 -19 -58 4 -4 269 -68 371 -90 44 -10 82 -14 86
-9 4 5 15 38 25 74 10 36 31 96 47 133 19 42 28 76 24 88 -4 13 26 117 80 280
48 143 85 262 83 263 -1 1 -25 18 -53 38 -80 57 -243 158 -255 158 -5 0 -10
-9 -10 -20z"/>
</g>
</svg>
