<?xml version="1.0" standalone="no"?>
<!DOCTYPE svg PUBLIC "-//W3C//DTD SVG 20010904//EN"
 "http://www.w3.org/TR/2001/REC-SVG-20010904/DTD/svg10.dtd">
<svg version="1.0" xmlns="http://www.w3.org/2000/svg"
 width="1024.000000pt" height="1024.000000pt" viewBox="0 0 1024.000000 1024.000000"
 preserveAspectRatio="xMidYMid meet">

<g transform="translate(0.000000,1024.000000) scale(0.100000,-0.100000)"
fill="#000000" stroke="none">
<path d="M4900 9104 c-433 -37 -822 -131 -1185 -286 -330 -141 -670 -366 -949
-627 -243 -227 -427 -448 -576 -691 -70 -114 -210 -385 -253 -490 -238 -580
-321 -1222 -241 -1855 36 -290 119 -604 234 -890 89 -221 275 -554 426 -762
361 -496 909 -927 1469 -1156 399 -163 750 -235 1194 -244 283 -6 408 3 676
47 251 42 682 173 743 225 l26 23 -79 17 c-44 9 -123 27 -175 39 -94 22 -96
22 -155 4 -125 -37 -366 -88 -520 -110 -137 -19 -202 -22 -450 -22 -250 0
-310 3 -435 23 -526 81 -969 261 -1396 567 -120 87 -361 291 -352 299 1 2 28
-3 58 -11 30 -8 111 -19 180 -25 152 -11 199 -20 360 -66 181 -52 313 -107
601 -252 273 -138 404 -190 558 -220 88 -17 239 -35 230 -27 -2 2 -49 22 -103
45 -176 75 -308 154 -560 334 -206 147 -291 197 -513 301 l-172 81 -4 298 c-4
272 -3 297 12 293 221 -60 770 -118 798 -84 14 16 19 8 -210 327 -77 107 -179
252 -228 323 -85 124 -87 128 -61 128 15 0 47 -5 72 -11 83 -19 205 -39 243
-39 30 0 37 4 37 20 0 10 -13 34 -28 52 -16 18 -39 51 -52 73 -13 22 -81 121
-151 220 -70 99 -154 224 -188 278 -70 112 -77 106 96 78 65 -11 143 -21 173
-23 53 -3 55 -2 58 23 3 21 -15 45 -90 125 -215 229 -409 501 -541 761 -34 68
-68 125 -74 128 -26 9 -42 -9 -107 -124 -170 -299 -396 -633 -526 -774 -44
-48 -80 -94 -80 -102 0 -40 97 -37 272 7 48 12 90 20 93 16 3 -3 -18 -41 -48
-84 -30 -44 -102 -155 -160 -249 -58 -93 -133 -208 -166 -255 -123 -172 -121
-182 28 -156 56 10 141 28 191 41 49 13 90 21 90 19 0 -9 -149 -226 -284 -414
-233 -324 -268 -378 -254 -387 23 -14 217 -16 332 -3 61 7 147 23 191 36 44
13 114 33 155 44 41 11 83 23 93 26 16 5 17 -10 17 -251 l-1 -257 -25 6 c-45
12 -295 35 -452 42 l-152 7 -29 32 c-84 95 -241 347 -336 536 -264 525 -377
1033 -362 1623 11 399 72 725 204 1084 60 163 201 444 300 599 440 688 1141
1189 1938 1387 305 76 481 95 835 91 314 -3 463 -21 728 -86 751 -184 1375
-599 1836 -1221 334 -452 539 -969 613 -1549 26 -209 24 -634 -5 -844 -96
-688 -360 -1270 -801 -1769 -85 -96 -306 -305 -347 -329 -39 -22 -6 -44 121
-82 86 -25 90 -24 212 88 174 158 280 282 440 512 122 177 182 279 268 458
256 533 378 1141 345 1717 -15 267 -27 373 -60 538 -122 607 -383 1141 -778
1596 -324 373 -651 628 -1057 826 -409 200 -757 303 -1185 350 -98 11 -511 21
-590 14z"/>
<path d="M5022 8333 c-11 -10 -67 -74 -123 -143 -144 -175 -734 -852 -845
-969 l-23 -24 -178 88 c-98 49 -199 102 -224 117 -83 50 -73 57 -260 -172 -56
-69 -142 -165 -189 -215 -48 -49 -122 -137 -165 -195 -126 -170 -235 -289
-449 -489 -110 -104 -258 -247 -327 -319 l-127 -130 37 -6 c20 -3 181 -6 358
-6 l322 0 60 50 c110 92 274 315 336 460 34 77 49 101 84 128 55 41 125 45
159 9 12 -13 69 -113 128 -222 104 -197 187 -327 244 -384 l29 -29 308 -8
c169 -5 632 -9 1028 -9 717 0 720 0 770 22 69 30 264 83 306 83 62 0 80 18
104 100 45 155 138 286 244 339 105 54 267 50 391 -11 82 -40 186 -142 223
-218 35 -73 57 -161 57 -230 0 -99 -28 -93 398 -85 242 5 375 11 379 18 8 14
-38 55 -277 245 -203 162 -617 512 -900 761 -91 80 -281 261 -423 403 -142
142 -264 258 -273 258 -20 0 -115 -64 -248 -169 -60 -47 -111 -80 -113 -75 -2
6 -27 44 -57 85 -223 313 -435 612 -500 709 -83 122 -199 250 -227 250 -9 0
-26 -8 -37 -17z m203 -525 c162 -234 471 -663 522 -725 19 -25 43 -43 54 -43
11 0 75 30 141 67 116 63 122 65 135 47 41 -54 307 -513 302 -518 -2 -2 -84
50 -183 115 -106 70 -176 111 -173 101 29 -99 71 -252 75 -272 l5 -25 -29 27
c-16 14 -74 54 -129 89 -121 75 -374 245 -544 363 -68 47 -131 86 -140 86 -9
0 -81 -59 -159 -131 -79 -72 -146 -129 -148 -127 -1 2 20 139 47 303 60 359
61 371 34 367 -11 -2 -49 -21 -85 -42 -36 -21 -66 -37 -67 -36 -3 3 192 556
197 556 3 -1 68 -91 145 -202z m-921 -1155 c-25 -215 -34 -311 -34 -344 0 -38
-1 -39 -37 -39 -60 0 -265 19 -270 24 -3 3 27 40 66 83 40 43 116 131 169 195
53 64 100 117 104 118 3 0 4 -17 2 -37z"/>
<path d="M6710 6285 c-76 -34 -122 -105 -175 -263 -40 -122 -31 -148 80 -226
24 -16 26 -23 21 -60 -5 -29 -2 -47 8 -61 19 -25 20 -65 3 -65 -7 0 -25 17
-38 38 -104 154 -114 162 -212 162 -83 0 -144 -19 -242 -76 -44 -26 -192 -105
-329 -176 -282 -146 -352 -190 -555 -352 -203 -163 -223 -183 -211 -206 8 -16
4 -23 -31 -47 -109 -76 -128 -94 -155 -148 -23 -49 -26 -64 -22 -124 6 -77 29
-121 78 -146 74 -38 124 -5 135 91 4 29 10 54 14 54 17 0 31 -27 31 -59 1 -43
20 -71 47 -71 12 0 30 8 41 18 20 17 82 148 82 174 0 22 100 123 154 157 28
17 87 42 133 56 50 16 113 45 156 73 82 53 298 165 305 158 2 -3 -27 -45 -65
-93 -139 -175 -226 -328 -277 -491 -34 -109 -36 -236 -5 -314 12 -29 30 -79
40 -111 l20 -58 -50 -102 c-50 -103 -133 -229 -258 -390 -37 -49 -90 -120
-118 -158 -48 -67 -49 -70 -37 -104 11 -28 10 -43 -2 -86 -9 -29 -16 -63 -16
-75 0 -31 -7 -33 -70 -23 -30 4 -111 15 -180 23 -69 9 -181 29 -250 46 -156
39 -328 46 -373 17 -42 -27 -35 -58 23 -110 96 -87 201 -128 565 -222 481
-124 756 -195 1155 -300 195 -51 499 -128 675 -171 l320 -79 165 1 c145 1 177
4 262 27 118 31 223 84 293 149 59 54 78 90 73 139 -3 30 -10 37 -56 61 -69
35 -132 42 -283 31 -70 -5 -174 -5 -239 0 -140 10 -347 34 -359 41 -4 3 -3 31
2 63 19 106 16 124 -22 150 -28 19 -47 23 -106 23 -39 0 -74 3 -78 6 -3 3 9
29 27 57 90 141 144 285 207 546 53 222 62 328 35 404 -19 51 -36 69 -136 138
-79 54 -291 238 -298 258 -3 10 328 501 337 501 3 0 16 -15 27 -33 56 -84 167
-197 247 -251 47 -31 88 -56 92 -56 4 0 55 -26 114 -57 58 -32 120 -60 136
-63 24 -4 31 -11 33 -32 5 -38 28 -53 86 -54 48 0 51 -2 54 -27 4 -34 46 -67
84 -67 91 0 156 125 117 227 -16 43 -67 91 -141 130 -49 27 -67 43 -72 62 -3
17 -19 34 -43 47 -77 44 -274 187 -285 208 -6 11 -28 64 -48 116 -47 125 -149
297 -210 354 -65 60 -168 86 -220 54 -14 -9 -23 -9 -30 -2 -7 7 12 34 65 89
108 114 140 190 95 230 -16 15 -30 17 -81 11 -56 -5 -66 -3 -122 27 l-61 32
169 5 170 5 3 62 c2 52 -2 71 -27 122 -39 76 -83 126 -135 153 -55 29 -204 36
-256 13z m-425 -2340 c37 -14 109 -36 159 -49 58 -16 92 -29 94 -39 2 -8 -43
-153 -98 -323 -91 -276 -101 -313 -96 -358 3 -28 6 -60 7 -71 0 -27 -34 -175
-41 -175 -13 0 -442 109 -446 113 -3 3 0 24 6 47 17 62 7 88 -43 110 -23 11
-52 20 -64 20 -13 0 -23 3 -23 7 0 3 17 29 39 57 176 234 332 469 389 588 26
54 48 97 48 98 1 0 32 -11 69 -25z"/>
</g>
</svg>
